<svg version="1.1" preserveAspectRatio="none" xmlns="http://www.w3.org/2000/svg" width="500" height="500"
     viewBox="0 0 500 500">
    <rect width="100%" height="100%" fill="#FFFFFF" fill-opacity="1"/>
    <svg viewBox="-4.5846 86.834 478.436 64" width="333" height="44.54514292402746" x="83.5px" y="227.7274px"
         xmlns="http://www.w3.org/2000/svg" xmlns:xlink="http://www.w3.org/1999/xlink" preserveAspectRatio="none">
        <defs></defs>
        <style>.aD6z1nYkhcolor {fill:#42A5FF;fill-opacity:1;}.aIptOCySncolors-3
            {fill:#3CB9EF;fill-opacity:1;}.aIptOCySncolors-4 {fill:#83EDFF;fill-opacity:1;}.aIptOCySncolors-5
            {fill:#AEDDFF;fill-opacity:1;}.aIptOCySncolors-6 {fill:#FFF1FF;fill-opacity:1;}.aIptOCySncolors-7
            {fill:#FFE4CE;fill-opacity:1;}.icon1 {fill:#42A5FF;fill-opacity:1;}.icon2
            {fill:#6DDDD0;fill-opacity:1;}.icon3 {fill:#FFD4D4;fill-opacity:1;}.icon3-str
            {stroke:#FFD4D4;stroke-opacity:1;}
        </style>
        <g opacity="1" transform="rotate(0 -4.5846 86.834)">
            <svg width="80.6319" height="64" x="-4.5846" y="86.834" version="1.1" preserveAspectRatio="none"
                 viewBox="37 50 126 100.010009765625">
                <g transform="matrix(1 0 0 1 0 0)">
                    <g>
                        <path d="M49.376 112.177H37V50h115.977v12.347H49.376v49.83z" data-color="1"
                              class="icon1"></path>
                        <path d="M69.679 123.129h12.009v-17.905H69.679v17.905zm1.547-16.362h8.915v14.819h-8.915v-14.819z"
                              data-color="2" class="icon2"></path>
                        <path d="M83.475 123.129h12.009V94.24H83.475v28.889zm1.547-27.345h8.915v25.802h-8.915V95.784z"
                              data-color="2" class="icon2"></path>
                        <path d="M65.06 76.517h10.047v-1.543H63.825l-2.655 11.68h-5.287v36.475h12.009V86.654h-5.136l2.304-10.137zm1.284 11.68v33.388h-8.915V88.197h3.389l-.855 3.759 1.509.341.932-4.101h3.94z"
                              data-color="2" class="icon2"></path>
                        <path d="M97.96 66.867v1.543H78.493v-1.543H97.96z" data-color="2" class="icon2"></path>
                        <path d="M97.96 71.258v1.543h-5.078v-1.543h5.078z" data-color="2" class="icon2"></path>
                        <path d="M88.819 71.258v1.543H78.493v-1.543h10.326z" data-color="2" class="icon2"></path>
                        <path d="M97.96 75.649v1.543H78.493v-1.543H97.96z" data-color="2" class="icon2"></path>
                        <path d="M97.96 80.04v1.543H78.493V80.04H97.96z" data-color="2" class="icon2"></path>
                        <path d="M123.473 114.712a21.5 21.5 0 0 0 4.243.423c11.814 0 21.426-9.589 21.426-21.376 0-11.786-9.612-21.375-21.426-21.375S106.29 81.973 106.29 93.76c0 9.8 6.648 18.075 15.679 20.588l-2.928 13.801h9.005v-1.543h-7.096l2.523-11.894zm24.079-22.195H128.49v-18.57c10.189.392 18.433 8.467 19.062 18.57zm-39.715 1.243c0-10.677 8.502-19.405 19.105-19.812v20.114h20.645c-.163 10.796-9.011 19.531-19.871 19.531-1.343 0-2.654-.135-3.923-.39l1.115-5.256-1.513-.32-1.105 5.208c-8.331-2.363-14.453-10.017-14.453-19.075z"
                              data-color="2" class="icon2"></path>
                        <path d="M138.663 128.463v1.543h-5.078v-1.543h5.078z" data-color="2" class="icon2"></path>
                        <path d="M153.052 128.463v1.543h-10.326v-1.543h10.326z" data-color="2" class="icon2"></path>
                        <path d="M153.052 124.072v1.543h-19.467v-1.543h19.467z" data-color="2" class="icon2"></path>
                        <path d="M153.052 119.681v1.543h-19.467v-1.543h19.467z" data-color="2" class="icon2"></path>
                        <path d="M163 56.974V55.43H39.349v1.543h2.904v79.22h-2.904v1.543l61.052.085v3.785a4.241 4.241 0 0 0-3.47 4.16 4.244 4.244 0 0 0 8.488 0 4.241 4.241 0 0 0-3.47-4.16v-3.785l61.051-.084v-1.543h-2.904v-79.22H163zm-59.129 88.792a2.697 2.697 0 1 1-5.394 0 2.697 2.697 0 0 1 5.394 0zM43.8 136.194v-79.06h114.749v79.059H43.8z"
                              data-color="2" class="icon2"></path>
                    </g>
                </g>
            </svg>
        </g>
        <g opacity="1" transform="rotate(0 91.0473 101.834)">
            <svg width="382.8041" height="34" x="91.0473" y="101.834" version="1.1" preserveAspectRatio="none"
                 viewBox="3.0859 -28.2422 382.2266 37.8711">
                <g transform="matrix(1 0 0 1 0 0)" class="aD6z1nYkhcolor">
                    <path id="id-D6z1nYkh19"
                          d="M3.09 0L3.09-26.52L12.85-26.52Q14.39-26.52 15.74-26.10Q17.09-25.68 18.07-24.83Q19.04-23.98 19.61-22.72Q20.18-21.46 20.18-19.80L20.18-19.80Q20.18-18.93 19.87-18.07Q19.57-17.21 19.03-16.46Q18.50-15.70 17.77-15.13Q17.05-14.55 16.21-14.26L16.21-14.26Q17.09-14.10 17.97-13.59Q18.85-13.09 19.55-12.25Q20.25-11.41 20.69-10.28Q21.13-9.16 21.13-7.81L21.13-7.81Q21.13-5.96 20.58-4.51Q20.02-3.07 18.91-2.06Q17.79-1.05 16.15-0.53Q14.51 0 12.34 0L12.34 0L3.09 0ZM7.52-3.32L11.88-3.32Q12.95-3.32 13.82-3.55Q14.69-3.79 15.31-4.32Q15.94-4.84 16.28-5.68Q16.62-6.52 16.62-7.73L16.62-7.73Q16.62-8.96 16.28-9.79Q15.94-10.63 15.34-11.14Q14.75-11.66 13.94-11.88Q13.13-12.09 12.19-12.09L12.19-12.09L7.52-12.09L7.52-3.32ZM7.52-15.04L13.03-15.04Q14.39-15.45 15.03-16.61Q15.66-17.77 15.66-19.73L15.66-19.73Q15.66-21.39 14.69-22.31Q13.71-23.24 11.99-23.24L11.99-23.24L7.52-23.24L7.52-15.04Z M24.98-6.54L24.98-19.96L29.16-19.96L29.16-6.91Q29.16-4.82 29.98-3.82Q30.80-2.81 32.73-2.81L32.73-2.81Q33.67-2.81 34.43-2.97Q35.20-3.13 35.76-3.34L35.76-3.34Q36.41-3.57 36.91-3.89L36.91-3.89L36.91-19.96L41.11-19.96L41.11-3.22L42.85-1.23L42.85 0L39.08 0L37.54-1.54L36.80-1.54Q36.64-1.43 36.21-1.11Q35.78-0.80 35.11-0.46Q34.43-0.12 33.55 0.14Q32.68 0.39 31.64 0.39L31.64 0.39Q30 0.39 28.75-0.10Q27.50-0.59 26.66-1.49Q25.82-2.40 25.40-3.68Q24.98-4.96 24.98-6.54L24.98-6.54Z M45.88-0.90L45.88-0.90Q45.88-1.35 45.96-1.88L45.96-1.88Q46.02-2.32 46.14-2.90Q46.27-3.48 46.52-4.10L46.52-4.10Q47.38-3.77 48.32-3.52L48.32-3.52Q49.12-3.30 50.06-3.12Q51.00-2.93 51.91-2.93L51.91-2.93Q52.73-2.93 53.44-2.99Q54.14-3.05 54.66-3.31Q55.18-3.57 55.47-4.11Q55.76-4.65 55.76-5.61L55.76-5.61Q55.76-6.76 55.05-7.42Q54.34-8.09 52.58-8.42L52.58-8.42Q50.76-8.77 49.52-9.36Q48.28-9.94 47.51-10.71Q46.74-11.48 46.40-12.44Q46.05-13.40 46.05-14.49L46.05-14.49Q46.05-16.13 46.58-17.29Q47.11-18.44 48.12-19.15Q49.12-19.86 50.62-20.19Q52.11-20.51 54.04-20.51L54.04-20.51Q55.39-20.51 56.44-20.32Q57.48-20.14 58.18-19.92L58.18-19.92Q59.00-19.67 59.61-19.34L59.61-19.34Q59.55-18.91 59.39-18.40L59.39-18.40Q59.26-17.97 59.03-17.42Q58.81-16.88 58.44-16.31L58.44-16.31Q57.91-16.62 57.23-16.86L57.23-16.86Q56.64-17.07 55.82-17.24Q55-17.40 53.95-17.40L53.95-17.40Q53.13-17.40 52.43-17.32Q51.74-17.25 51.24-16.97Q50.74-16.70 50.47-16.14Q50.20-15.59 50.20-14.63L50.20-14.63Q50.20-14.16 50.32-13.78Q50.45-13.40 50.83-13.09Q51.21-12.77 51.90-12.51Q52.60-12.25 53.75-11.99L53.75-11.99Q55.55-11.60 56.75-11.09Q57.95-10.59 58.66-9.86Q59.38-9.14 59.68-8.17Q59.98-7.21 59.98-5.88L59.98-5.88Q59.98-4.45 59.53-3.30Q59.08-2.15 58.13-1.33Q57.17-0.51 55.66-0.06Q54.16 0.39 52.03 0.39L52.03 0.39Q50.66 0.39 49.54 0.20Q48.42 0 47.60-0.25L47.60-0.25Q46.64-0.53 45.88-0.90Z M66.99-23.34L66.99-23.34Q66.45-23.34 65.97-23.54Q65.49-23.73 65.13-24.06Q64.77-24.39 64.55-24.83Q64.34-25.27 64.34-25.78L64.34-25.78Q64.34-26.31 64.55-26.76Q64.77-27.21 65.13-27.54Q65.49-27.87 65.97-28.06Q66.45-28.24 66.99-28.24L66.99-28.24Q67.54-28.24 68.03-28.06Q68.52-27.87 68.88-27.54Q69.24-27.21 69.45-26.76Q69.67-26.31 69.67-25.78L69.67-25.78Q69.67-25.27 69.45-24.83Q69.24-24.39 68.88-24.06Q68.52-23.73 68.03-23.54Q67.54-23.34 66.99-23.34ZM64.75-3.36L64.75-19.96L68.81-19.96L68.81-3.28L69.96-2.46L69.96 0L68.85 0L68.81-0.04L68.81 0Q66.88 0 65.81-0.78Q64.75-1.56 64.75-3.36L64.75-3.36Z M75.14 0L75.14-16.39L73.59-17.97L73.59-20.18L77.19-20.18L78.87-18.65L79.43-18.77Q79.57-18.89 80.07-19.18Q80.57-19.47 81.30-19.77Q82.03-20.06 82.97-20.28Q83.91-20.51 84.94-20.51L84.94-20.51Q86.58-20.51 87.86-20.02Q89.14-19.53 90.02-18.62Q90.90-17.71 91.35-16.45Q91.80-15.18 91.80-13.59L91.80-13.59L91.80 0L87.60 0L87.60-13.18Q87.60-15.31 86.71-16.32Q85.82-17.32 83.89-17.32L83.89-17.32Q82.93-17.32 82.11-17.16Q81.29-16.99 80.66-16.78L80.66-16.78Q79.94-16.54 79.32-16.23L79.32-16.23L79.32 0L75.14 0Z M96.09-9.79L96.09-9.79Q96.09-12.60 96.78-14.63Q97.46-16.66 98.69-17.97Q99.92-19.28 101.63-19.89Q103.34-20.51 105.39-20.51L105.39-20.51Q107.29-20.51 108.78-19.87Q110.27-19.24 111.31-18.09Q112.34-16.93 112.89-15.33Q113.44-13.73 113.44-11.80L113.44-11.80Q113.44-11.13 113.38-10.57Q113.32-10 113.24-9.59L113.24-9.59Q113.16-9.10 113.07-8.71L113.07-8.71L100.25-8.77Q100.27-7.03 100.63-5.89Q100.98-4.75 101.67-4.08Q102.36-3.42 103.42-3.15Q104.47-2.89 105.92-2.89L105.92-2.89Q107.15-2.89 108.13-3.05Q109.10-3.20 109.79-3.42L109.79-3.42Q110.57-3.65 111.19-3.96L111.19-3.96Q111.48-3.28 111.65-2.70Q111.82-2.11 111.89-1.68L111.89-1.68Q111.97-1.17 112.01-0.78L112.01-0.78Q111.37-0.45 110.45-0.20L110.45-0.20Q109.67 0.02 108.54 0.21Q107.40 0.39 105.92 0.39L105.92 0.39Q103.57 0.39 101.75-0.14Q99.92-0.66 98.66-1.87Q97.40-3.07 96.75-5.01Q96.09-6.95 96.09-9.79ZM100.31-11.62L109.26-11.62L109.26-12.29Q109.26-13.52 108.96-14.46Q108.65-15.41 108.13-16.05Q107.60-16.70 106.88-17.03Q106.15-17.36 105.31-17.36L105.31-17.36Q104.08-17.36 103.14-17.04Q102.21-16.72 101.57-16.03Q100.94-15.33 100.63-14.24Q100.31-13.14 100.31-11.62L100.31-11.62Z M116.64-0.90L116.64-0.90Q116.64-1.35 116.72-1.88L116.72-1.88Q116.78-2.32 116.90-2.90Q117.03-3.48 117.29-4.10L117.29-4.10Q118.14-3.77 119.08-3.52L119.08-3.52Q119.88-3.30 120.82-3.12Q121.76-2.93 122.68-2.93L122.68-2.93Q123.50-2.93 124.20-2.99Q124.90-3.05 125.42-3.31Q125.94-3.57 126.23-4.11Q126.52-4.65 126.52-5.61L126.52-5.61Q126.52-6.76 125.81-7.42Q125.10-8.09 123.34-8.42L123.34-8.42Q121.52-8.77 120.28-9.36Q119.04-9.94 118.27-10.71Q117.50-11.48 117.16-12.44Q116.82-13.40 116.82-14.49L116.82-14.49Q116.82-16.13 117.34-17.29Q117.87-18.44 118.88-19.15Q119.88-19.86 121.38-20.19Q122.87-20.51 124.80-20.51L124.80-20.51Q126.15-20.51 127.20-20.32Q128.24-20.14 128.95-19.92L128.95-19.92Q129.77-19.67 130.37-19.34L130.37-19.34Q130.31-18.91 130.16-18.40L130.16-18.40Q130.02-17.97 129.79-17.42Q129.57-16.88 129.20-16.31L129.20-16.31Q128.67-16.62 127.99-16.86L127.99-16.86Q127.40-17.07 126.58-17.24Q125.76-17.40 124.71-17.40L124.71-17.40Q123.89-17.40 123.19-17.32Q122.50-17.25 122.00-16.97Q121.50-16.70 121.23-16.14Q120.96-15.59 120.96-14.63L120.96-14.63Q120.96-14.16 121.08-13.78Q121.21-13.40 121.59-13.09Q121.97-12.77 122.67-12.51Q123.36-12.25 124.51-11.99L124.51-11.99Q126.31-11.60 127.51-11.09Q128.71-10.59 129.42-9.86Q130.14-9.14 130.44-8.17Q130.74-7.21 130.74-5.88L130.74-5.88Q130.74-4.45 130.29-3.30Q129.84-2.15 128.89-1.33Q127.93-0.51 126.43-0.06Q124.92 0.39 122.79 0.39L122.79 0.39Q121.43 0.39 120.30 0.20Q119.18 0 118.36-0.25L118.36-0.25Q117.40-0.53 116.64-0.90Z M134.43-0.90L134.43-0.90Q134.43-1.35 134.51-1.88L134.51-1.88Q134.57-2.32 134.70-2.90Q134.82-3.48 135.08-4.10L135.08-4.10Q135.94-3.77 136.88-3.52L136.88-3.52Q137.68-3.30 138.61-3.12Q139.55-2.93 140.47-2.93L140.47-2.93Q141.29-2.93 141.99-2.99Q142.70-3.05 143.21-3.31Q143.73-3.57 144.02-4.11Q144.32-4.65 144.32-5.61L144.32-5.61Q144.32-6.76 143.60-7.42Q142.89-8.09 141.13-8.42L141.13-8.42Q139.32-8.77 138.08-9.36Q136.84-9.94 136.06-10.71Q135.29-11.48 134.95-12.44Q134.61-13.40 134.61-14.49L134.61-14.49Q134.61-16.13 135.14-17.29Q135.66-18.44 136.67-19.15Q137.68-19.86 139.17-20.19Q140.66-20.51 142.60-20.51L142.60-20.51Q143.95-20.51 144.99-20.32Q146.04-20.14 146.74-19.92L146.74-19.92Q147.56-19.67 148.16-19.34L148.16-19.34Q148.11-18.91 147.95-18.40L147.95-18.40Q147.81-17.97 147.59-17.42Q147.36-16.88 146.99-16.31L146.99-16.31Q146.46-16.62 145.78-16.86L145.78-16.86Q145.20-17.07 144.38-17.24Q143.55-17.40 142.50-17.40L142.50-17.40Q141.68-17.40 140.99-17.32Q140.29-17.25 139.79-16.97Q139.30-16.70 139.02-16.14Q138.75-15.59 138.75-14.63L138.75-14.63Q138.75-14.16 138.88-13.78Q139.00-13.40 139.38-13.09Q139.77-12.77 140.46-12.51Q141.15-12.25 142.30-11.99L142.30-11.99Q144.10-11.60 145.30-11.09Q146.50-10.59 147.22-9.86Q147.93-9.14 148.23-8.17Q148.54-7.21 148.54-5.88L148.54-5.88Q148.54-4.45 148.09-3.30Q147.64-2.15 146.68-1.33Q145.72-0.51 144.22-0.06Q142.71 0.39 140.59 0.39L140.59 0.39Q139.22 0.39 138.10 0.20Q136.97 0 136.15-0.25L136.15-0.25Q135.20-0.53 134.43-0.90Z M163.85 0L165.23-26.52L171.89-26.52L175.72-13.28L177.15-7.58L178.57-13.28L182.30-26.52L188.96-26.52L190.41 0L186.17 0L185.37-19.18L185.47-24.32Q185.02-22.97 184.54-21.35Q184.06-19.73 183.56-17.98Q183.07-16.23 182.57-14.42Q182.07-12.62 181.57-10.87Q181.07-9.12 180.60-7.51Q180.12-5.90 179.67-4.57L179.67-4.57L174.65-4.57L168.67-24.38L168.75-19.10L168.09 0L163.85 0Z M193.71-5.70L193.71-5.70Q193.71-7.32 194.18-8.46Q194.65-9.59 195.56-10.31Q196.46-11.04 197.76-11.40Q199.06-11.76 200.74-11.86L200.74-11.86L205.10-12.09L205.10-13.65Q205.10-14.71 204.91-15.39Q204.73-16.07 204.30-16.48Q203.87-16.89 203.15-17.06Q202.44-17.23 201.39-17.23L201.39-17.23Q200.33-17.23 199.38-16.99Q198.44-16.76 197.73-16.48L197.73-16.48Q196.89-16.15 196.19-15.74L196.19-15.74Q195.76-16.35 195.51-16.90Q195.25-17.46 195.12-17.91L195.12-17.91Q194.94-18.42 194.88-18.89L194.88-18.89Q195.82-19.36 196.89-19.71L196.89-19.71Q197.83-20.02 199.05-20.27Q200.27-20.53 201.62-20.53L201.62-20.53Q203.85-20.53 205.31-20.14Q206.78-19.75 207.65-18.96Q208.52-18.16 208.86-16.96Q209.20-15.76 209.20-14.12L209.20-14.12L209.20-3.22L210.84-1.23L210.84 0L207.23 0L205.72-1.74L205.02-1.74Q204.92-1.64 204.50-1.30Q204.08-0.96 203.43-0.58Q202.77-0.20 201.94 0.10Q201.11 0.39 200.18 0.39L200.18 0.39Q198.71 0.39 197.52-0.05Q196.33-0.49 195.48-1.30Q194.63-2.11 194.17-3.23Q193.71-4.36 193.71-5.70ZM197.97-6.05L197.97-6.05Q197.97-5.16 198.22-4.56Q198.48-3.96 198.94-3.61Q199.39-3.26 200.05-3.13Q200.70-2.99 201.50-2.99L201.50-2.99Q202.25-2.99 202.90-3.17Q203.55-3.36 204.04-3.59L204.04-3.59Q204.61-3.85 205.10-4.20L205.10-4.20L205.10-9.45L201.17-9.20Q200.25-9.14 199.64-8.89Q199.02-8.63 198.65-8.22Q198.28-7.81 198.13-7.26Q197.97-6.70 197.97-6.05Z M214.80 0L214.80-16.39L213.26-17.97L213.26-20.18L216.86-20.18L218.54-18.65L219.10-18.77Q219.24-18.89 219.74-19.18Q220.23-19.47 220.97-19.77Q221.70-20.06 222.64-20.28Q223.57-20.51 224.61-20.51L224.61-20.51Q226.25-20.51 227.53-20.02Q228.81-19.53 229.69-18.62Q230.57-17.71 231.02-16.45Q231.46-15.18 231.46-13.59L231.46-13.59L231.46 0L227.27 0L227.27-13.18Q227.27-15.31 226.38-16.32Q225.49-17.32 223.55-17.32L223.55-17.32Q222.60-17.32 221.78-17.16Q220.96-16.99 220.33-16.78L220.33-16.78Q219.61-16.54 218.98-16.23L218.98-16.23L218.98 0L214.80 0Z M235.51-5.70L235.51-5.70Q235.51-7.32 235.98-8.46Q236.45-9.59 237.35-10.31Q238.26-11.04 239.56-11.40Q240.86-11.76 242.54-11.86L242.54-11.86L246.89-12.09L246.89-13.65Q246.89-14.71 246.71-15.39Q246.52-16.07 246.09-16.48Q245.66-16.89 244.95-17.06Q244.24-17.23 243.18-17.23L243.18-17.23Q242.13-17.23 241.18-16.99Q240.23-16.76 239.53-16.48L239.53-16.48Q238.69-16.15 237.99-15.74L237.99-15.74Q237.56-16.35 237.30-16.90Q237.05-17.46 236.91-17.91L236.91-17.91Q236.74-18.42 236.68-18.89L236.68-18.89Q237.62-19.36 238.69-19.71L238.69-19.71Q239.63-20.02 240.85-20.27Q242.07-20.53 243.42-20.53L243.42-20.53Q245.64-20.53 247.11-20.14Q248.57-19.75 249.44-18.96Q250.31-18.16 250.65-16.96Q251.00-15.76 251.00-14.12L251.00-14.12L251.00-3.22L252.64-1.23L252.64 0L249.02 0L247.52-1.74L246.82-1.74Q246.72-1.64 246.30-1.30Q245.88-0.96 245.22-0.58Q244.57-0.20 243.74 0.10Q242.91 0.39 241.97 0.39L241.97 0.39Q240.51 0.39 239.32-0.05Q238.13-0.49 237.28-1.30Q236.43-2.11 235.97-3.23Q235.51-4.36 235.51-5.70ZM239.77-6.05L239.77-6.05Q239.77-5.16 240.02-4.56Q240.27-3.96 240.73-3.61Q241.19-3.26 241.85-3.13Q242.50-2.99 243.30-2.99L243.30-2.99Q244.04-2.99 244.70-3.17Q245.35-3.36 245.84-3.59L245.84-3.59Q246.41-3.85 246.89-4.20L246.89-4.20L246.89-9.45L242.97-9.20Q242.05-9.14 241.44-8.89Q240.82-8.63 240.45-8.22Q240.08-7.81 239.92-7.26Q239.77-6.70 239.77-6.05Z M257.79-0.35L257.79-0.80Q257.34-1.35 257.11-2.10Q256.88-2.85 256.88-3.67L256.88-3.67Q256.88-4.57 257.00-5.24Q257.13-5.92 257.29-6.37L257.29-6.37Q257.46-6.89 257.70-7.27L257.70-7.27L257.70-8.16Q256.76-9.10 256.20-10.37Q255.64-11.64 255.64-13.46L255.64-13.46Q255.64-15.10 256.21-16.40Q256.78-17.70 257.82-18.60Q258.87-19.51 260.35-20Q261.84-20.49 263.67-20.49L263.67-20.49L263.69-20.49Q264.98-20.49 265.83-20.39Q266.68-20.29 267.21-20.18L267.21-20.18Q267.83-20.04 268.18-19.86L268.18-19.86L273.69-20.45L273.69-17.29L270.51-17.29Q270.76-17.03 271.04-16.62Q271.31-16.21 271.53-15.70Q271.76-15.20 271.90-14.62Q272.05-14.04 272.05-13.46L272.05-13.46Q272.05-11.84 271.43-10.52Q270.80-9.20 269.69-8.24Q268.57-7.29 267.04-6.76Q265.51-6.23 263.69-6.23L263.69-6.23L263.67-6.23Q263.26-6.23 262.79-6.26Q262.32-6.29 261.84-6.34Q261.35-6.39 260.90-6.46Q260.45-6.52 260.08-6.62L260.08-6.62L260.08-3.93Q260.08-3.71 260.21-3.55Q260.35-3.40 260.56-3.29Q260.76-3.18 261.02-3.13Q261.27-3.07 261.50-3.07L261.50-3.07L269.22-3.07Q270.61-3.07 271.55-2.68Q272.50-2.29 273.09-1.59Q273.67-0.90 273.93 0.08Q274.18 1.05 274.18 2.23L274.18 2.23Q274.18 3.71 273.53 5.06Q272.87 6.41 271.60 7.42Q270.33 8.44 268.45 9.03Q266.56 9.63 264.10 9.63L264.10 9.63L264.08 9.63Q262.05 9.63 260.45 9.19Q258.85 8.75 257.74 7.98Q256.64 7.21 256.05 6.15Q255.47 5.10 255.47 3.87L255.47 3.87Q255.47 3.05 255.82 2.29Q256.17 1.52 256.62 0.94L256.62 0.94Q257.13 0.25 257.79-0.35L257.79-0.35ZM263.67-9.14L263.69-9.14Q264.84-9.14 265.66-9.37Q266.48-9.59 267.01-10.10Q267.54-10.61 267.78-11.43Q268.03-12.25 268.03-13.46L268.03-13.46Q268.03-15.66 267.01-16.62Q266.00-17.58 263.69-17.58L263.69-17.58L263.67-17.58Q262.50-17.58 261.72-17.35Q260.94-17.13 260.49-16.63Q260.04-16.13 259.85-15.35Q259.67-14.57 259.67-13.46L259.67-13.46Q259.67-12.36 259.84-11.55Q260.02-10.74 260.48-10.21Q260.94-9.67 261.71-9.40Q262.48-9.14 263.67-9.14L263.67-9.14ZM259.30 3.14L259.30 3.14Q259.30 3.65 259.45 4.22Q259.61 4.79 260.13 5.25Q260.64 5.72 261.60 6.03Q262.56 6.33 264.18 6.33L264.18 6.33L264.20 6.33Q265.74 6.33 266.89 5.97Q268.05 5.61 268.80 5.02Q269.55 4.43 269.92 3.71Q270.29 2.99 270.29 2.27L270.29 2.27Q270.29 1.35 269.93 0.85Q269.57 0.35 268.87 0.35L268.87 0.35L260.14 0.35Q259.90 0.61 259.60 1.35Q259.30 2.09 259.30 3.14Z M276.76-9.79L276.76-9.79Q276.76-12.60 277.44-14.63Q278.13-16.66 279.36-17.97Q280.59-19.28 282.29-19.89Q284.00-20.51 286.05-20.51L286.05-20.51Q287.95-20.51 289.44-19.87Q290.94-19.24 291.97-18.09Q293.01-16.93 293.55-15.33Q294.10-13.73 294.10-11.80L294.10-11.80Q294.10-11.13 294.04-10.57Q293.98-10 293.91-9.59L293.91-9.59Q293.83-9.10 293.73-8.71L293.73-8.71L280.92-8.77Q280.94-7.03 281.29-5.89Q281.64-4.75 282.33-4.08Q283.03-3.42 284.08-3.15Q285.14-2.89 286.58-2.89L286.58-2.89Q287.81-2.89 288.79-3.05Q289.77-3.20 290.45-3.42L290.45-3.42Q291.23-3.65 291.86-3.96L291.86-3.96Q292.15-3.28 292.31-2.70Q292.48-2.11 292.56-1.68L292.56-1.68Q292.64-1.17 292.68-0.78L292.68-0.78Q292.03-0.45 291.11-0.20L291.11-0.20Q290.33 0.02 289.20 0.21Q288.07 0.39 286.58 0.39L286.58 0.39Q284.24 0.39 282.41-0.14Q280.59-0.66 279.33-1.87Q278.07-3.07 277.41-5.01Q276.76-6.95 276.76-9.79ZM280.98-11.62L289.92-11.62L289.92-12.29Q289.92-13.52 289.62-14.46Q289.32-15.41 288.79-16.05Q288.26-16.70 287.54-17.03Q286.82-17.36 285.98-17.36L285.98-17.36Q284.75-17.36 283.81-17.04Q282.87-16.72 282.24-16.03Q281.60-15.33 281.29-14.24Q280.98-13.14 280.98-11.62L280.98-11.62Z M298.59-16.39L297.05-17.97L297.05-20.18L300.64-20.18L302.32-18.48L302.85-18.79Q302.95-18.89 303.43-19.17Q303.91-19.45 304.63-19.76Q305.35-20.06 306.26-20.29Q307.17-20.53 308.11-20.53L308.11-20.53Q309.84-20.53 310.97-20.02Q312.09-19.51 312.93-18.55L312.93-18.55Q313.24-18.81 313.85-19.15Q314.45-19.49 315.24-19.80Q316.04-20.12 316.95-20.32Q317.87-20.53 318.81-20.53L318.81-20.53Q320.45-20.53 321.81-20.04Q323.16-19.55 324.13-18.64Q325.10-17.73 325.63-16.46Q326.17-15.20 326.17-13.61L326.17-13.61L326.17 0L321.97 0L321.97-13.20Q321.97-15.31 320.84-16.33Q319.71-17.34 317.75-17.34L317.75-17.34Q316.60-17.34 315.60-17.16Q314.59-16.97 314.10-16.76L314.10-16.76Q314.38-16.13 314.53-15.43Q314.69-14.73 314.69-14.00L314.69-14.00L314.69 0L310.49 0L310.49-13.59Q310.49-15.49 309.71-16.42Q308.93-17.34 307.03-17.34L307.03-17.34Q306.13-17.34 305.35-17.18Q304.57-17.01 304.00-16.80L304.00-16.80Q303.34-16.56 302.77-16.27L302.77-16.27L302.77 0L298.59 0L298.59-16.39Z M330.47-9.79L330.47-9.79Q330.47-12.60 331.15-14.63Q331.84-16.66 333.07-17.97Q334.30-19.28 336.01-19.89Q337.71-20.51 339.77-20.51L339.77-20.51Q341.66-20.51 343.15-19.87Q344.65-19.24 345.68-18.09Q346.72-16.93 347.27-15.33Q347.81-13.73 347.81-11.80L347.81-11.80Q347.81-11.13 347.75-10.57Q347.70-10 347.62-9.59L347.62-9.59Q347.54-9.10 347.44-8.71L347.44-8.71L334.63-8.77Q334.65-7.03 335-5.89Q335.35-4.75 336.04-4.08Q336.74-3.42 337.79-3.15Q338.85-2.89 340.29-2.89L340.29-2.89Q341.52-2.89 342.50-3.05Q343.48-3.20 344.16-3.42L344.16-3.42Q344.94-3.65 345.57-3.96L345.57-3.96Q345.86-3.28 346.03-2.70Q346.19-2.11 346.27-1.68L346.27-1.68Q346.35-1.17 346.39-0.78L346.39-0.78Q345.74-0.45 344.82-0.20L344.82-0.20Q344.04 0.02 342.91 0.21Q341.78 0.39 340.29 0.39L340.29 0.39Q337.95 0.39 336.12-0.14Q334.30-0.66 333.04-1.87Q331.78-3.07 331.12-5.01Q330.47-6.95 330.47-9.79ZM334.69-11.62L343.63-11.62L343.63-12.29Q343.63-13.52 343.33-14.46Q343.03-15.41 342.50-16.05Q341.97-16.70 341.25-17.03Q340.53-17.36 339.69-17.36L339.69-17.36Q338.46-17.36 337.52-17.04Q336.58-16.72 335.95-16.03Q335.31-15.33 335-14.24Q334.69-13.14 334.69-11.62L334.69-11.62Z M352.30 0L352.30-16.39L350.76-17.97L350.76-20.18L354.36-20.18L356.04-18.65L356.60-18.77Q356.74-18.89 357.24-19.18Q357.73-19.47 358.47-19.77Q359.20-20.06 360.14-20.28Q361.07-20.51 362.11-20.51L362.11-20.51Q363.75-20.51 365.03-20.02Q366.31-19.53 367.19-18.62Q368.07-17.71 368.52-16.45Q368.96-15.18 368.96-13.59L368.96-13.59L368.96 0L364.77 0L364.77-13.18Q364.77-15.31 363.88-16.32Q362.99-17.32 361.05-17.32L361.05-17.32Q360.10-17.32 359.28-17.16Q358.46-16.99 357.83-16.78L357.83-16.78Q357.11-16.54 356.48-16.23L356.48-16.23L356.48 0L352.30 0Z M375.31-5.59L375.31-16.93L372.75-16.93Q372.73-17.15 372.71-17.40L372.71-17.40Q372.70-17.62 372.69-17.91Q372.68-18.20 372.68-18.55L372.68-18.55Q372.68-18.91 372.70-19.21Q372.71-19.51 372.75-19.96L372.75-19.96L375.31-19.96L375.31-23.07L377.56-25.61L379.30-25.61L379.30-19.96L384.82-19.96Q384.86-19.77 384.89-19.49Q384.92-19.22 384.92-18.96L384.92-18.96Q384.92-18.52 384.83-18.14Q384.75-17.77 384.65-17.50L384.65-17.50Q384.53-17.19 384.38-16.93L384.38-16.93L379.30-16.93L379.30-5.61Q379.30-4.18 379.78-3.54Q380.25-2.89 381.31-2.89L381.31-2.89Q381.76-2.89 382.26-3.00Q382.75-3.11 383.20-3.26L383.20-3.26Q383.71-3.44 384.24-3.65L384.24-3.65Q384.63-3.14 384.85-2.66Q385.08-2.17 385.18-1.78L385.18-1.78Q385.29-1.33 385.31-0.94L385.31-0.94Q384.77-0.57 384.08-0.27L384.08-0.27Q383.48-0.02 382.64 0.19Q381.80 0.39 380.70 0.39L380.70 0.39Q379.18 0.39 378.15 0.01Q377.13-0.37 376.49-1.12Q375.86-1.88 375.59-3.00Q375.31-4.12 375.31-5.59L375.31-5.59Z"/>
                </g>
            </svg>
        </g>
    </svg>
</svg>